inDegrees=no
num_controls=7
num_derivatives=13
num_iterations=169
num_multipliers=7
num_parameters=0
num_slacks=7
num_states=26
objective=5.295893
objective_accelerations=0.564201
objective_balance=0.060600
objective_effort=0.537523
objective_height=4.063801
objective_ligament=0.069769
solver_duration=1808.885272
status=Solve_Succeeded
success=true
DataType=double
version=3
OpenSimVersion=4.4-2022-07-23-0e9fedc
endheader
time	/jointset/ground_pelvis/pelvis_tilt/value	/jointset/ground_pelvis/pelvis_tx/value	/jointset/ground_pelvis/pelvis_ty/value	/jointset/hip_l/hip_flexion_l/value	/jointset/hip_l/hip_adduction_l/value	/jointset/hip_l/hip_rotation_l/value	/jointset/back/lumbar_extension/value	/jointset/patellofemoral_l/patellar_flexion_l/value	/jointset/knee_l/knee_flexion_l/value	/jointset/knee_l/knee_adduction_l/value	/jointset/knee_l/knee_rotation_l/value	/jointset/ankle_l/ankle_angle_l/value	/jointset/subtalar_l/subtalar_angle_l/value	/jointset/ground_pelvis/pelvis_tilt/speed	/jointset/ground_pelvis/pelvis_tx/speed	/jointset/ground_pelvis/pelvis_ty/speed	/jointset/hip_l/hip_flexion_l/speed	/jointset/hip_l/hip_adduction_l/speed	/jointset/hip_l/hip_rotation_l/speed	/jointset/back/lumbar_extension/speed	/jointset/patellofemoral_l/patellar_flexion_l/speed	/jointset/knee_l/knee_flexion_l/speed	/jointset/knee_l/knee_adduction_l/speed	/jointset/knee_l/knee_rotation_l/speed	/jointset/ankle_l/ankle_angle_l/speed	/jointset/subtalar_l/subtalar_angle_l/speed	/forceset/tau_hip_flexion_l	/forceset/tau_hip_adduction_l	/forceset/tau_hip_rotation_l	/forceset/tau_knee_flexion_l	/forceset/tau_ankle_angle_l	/forceset/tau_subtalar_angle_l	/forceset/tau_lumbar_extension	lambda_cid13_p0	lambda_cid13_p1	lambda_cid13_p2	lambda_cid13_p3	lambda_cid13_p4	lambda_cid13_p5	lambda_cid14_p0	/jointset/ground_pelvis/pelvis_tilt/accel	/jointset/ground_pelvis/pelvis_tx/accel	/jointset/ground_pelvis/pelvis_ty/accel	/jointset/hip_l/hip_flexion_l/accel	/jointset/hip_l/hip_adduction_l/accel	/jointset/hip_l/hip_rotation_l/accel	/jointset/back/lumbar_extension/accel	/jointset/patellofemoral_l/patellar_flexion_l/accel	/jointset/knee_l/knee_flexion_l/accel	/jointset/knee_l/knee_adduction_l/accel	/jointset/knee_l/knee_rotation_l/accel	/jointset/ankle_l/ankle_angle_l/accel	/jointset/subtalar_l/subtalar_angle_l/accel	gamma_cid13_p0	gamma_cid13_p1	gamma_cid13_p2	gamma_cid13_p3	gamma_cid13_p4	gamma_cid13_p5	gamma_cid14_p0
1.5	0.03396615629722312	0.01073090250737195	0.8318170666012631	0.7112462996289994	-0.3224682127295584	-0.1062107010857935	-0.8017259980111341	0.9306610071303436	0.9306610071303525	-0.06481182902276525	-0.1745306363700035	0.2578143234817138	0.06602899559683802	0.2523078955185472	0.1697841814283507	0.5287002773586199	-2.097196446757496	0.08049656888045531	-0.6693572493741948	0.8330076562629378	-2.389826592017403	-2.389826592017299	-0.2388047842723727	-4.10685168517279e-06	-0.6989269004970541	-0.1895007884898029	-0.1816591757250955	0.02615256684316521	-0.009029283670242593	-0.2611418743477661	0.01790393882825143	0.04239640917959987	0.2700909360563207	-35.00896702528097	-14.6595721509315	4.597510296309961	-5.865786261175522	-661.6086203823085	-76.02012938787611	-9.317575435956106	-0.03923775657699623	0.644924387365437	-0.7739589086415637	-0.6919942464375154	0.4372578716500687	-0.6448976872216629	2.07381216895535	-1.405692367490132	-1.405692367490132	-0.1685618393548968	-0.008611257161839013	-0.7058026669524333	0.4444448544610191	6.251964827886514e-07	5.398155393738033e-08	-4.113093917462596e-06	-3.559224151504245e-07	7.449284798465548e-07	7.623402311938723e-07	4.819428637069179e-07
1.51	0.03648725359008962	0.01246088348187185	0.8370642857147141	0.6902413722684742	-0.3216426318065895	-0.1129326597693606	-0.7932936988243482	0.9066951745472926	0.9066951745473009	-0.06721332657803307	-0.1745308335133765	0.2507904452684403	0.06415463536383342	0.2518702269702272	0.1761976175683462	0.5206280778799747	-2.103521188097129	0.08462483449717267	-0.6749740955913482	0.8533455129168069	-2.403005262835972	-2.4030052628359	-0.2414932151620852	-2.580123323566125e-05	-0.7057199774590284	-0.1853267282635747	-0.1745209967563646	0.02514506702497906	-0.008979351797784252	-0.2562237942101293	0.02066382698414956	0.04195117662694296	0.2628380103881358	-33.8373128268389	-14.75856109240465	4.712898897846725	-6.159611790953727	-656.1362817471188	-75.88759423586349	-10.300625930529	-0.05216942858345791	0.6373270703682822	-0.8410123730675553	-0.5624568526495708	0.4019906583953627	-0.5104936522535608	1.99777218703455	-1.223854139485448	-1.223854139490094	-0.3187961525098466	0.001699145448167566	-0.6467266746670139	0.4110091542086561	6.450211405170602e-07	1.856746097965288e-07	-4.120495935290957e-06	-3.413591213695369e-07	7.75375801225014e-07	9.320881019577844e-07	4.90441396809106e-07
1.52	0.03900274659254903	0.01425455358638203	0.8422273504522603	0.6691812489395694	-0.3207754922771113	-0.1197088700277504	-0.7846612211163371	0.882607575315973	0.8826075753159677	-0.06964167092995514	-0.1745311180657433	0.2437025029927793	0.06232344024259224	0.2511870374369412	0.1825220074304087	0.511869402177655	-2.108235640433703	0.08880829018239136	-0.6802075643401531	0.8730433605079474	-2.414179921672345	-2.414179921672302	-0.2441741436010079	-2.158865079360984e-05	-0.7117397129748866	-0.1808677661371482	-0.1673828177876213	0.02413756720682599	-0.008929419925515393	-0.2513057140724875	0.0234237151400586	0.0415059440743368	0.2555850847199537	-32.66339183136616	-14.85740887894795	4.827655098280355	-6.508692652861846	-650.657339777151	-75.84323255299343	-11.27507153425186	-0.08834195357013272	0.627115131778795	-0.9112541533764453	-0.3699364458256798	0.4482958853503758	-0.5682221935518895	1.945810356409625	-1.004889971050602	-1.004889971050606	-0.167061349196936	-0.003429864363302295	-0.5511343777292871	0.5014252345006716	6.65151576746405e-07	3.622394129472562e-07	-4.11520893747369e-06	-3.206797970239212e-07	8.101863734876272e-07	1.118108071460815e-06	5.013217096494042e-07
1.53	0.04151024573749711	0.01611093716767125	0.8472994846387173	0.6480819739190834	-0.3198663729971122	-0.1265358408152388	-0.7758352461681122	0.8584182982344942	0.8584182982344953	-0.07209665233323358	-0.1745314453029917	0.2365582266279708	0.06053809279007846	0.2502732570709445	0.188730962628296	0.5024494787864133	-2.111338261643013	0.09301834573727082	-0.6851173379376898	0.8920211717820613	-2.423319929289547	-2.423319929289534	-0.2468184715329697	-3.197178874373104e-05	-0.7169793101566878	-0.1761603526814803	-0.1602017642620347	0.0229717848227657	-0.008781677924285549	-0.2465705083568944	0.02608996856341874	0.04089306212333245	0.2482616738769758	-31.54797387525572	-14.85615622198339	4.906976287718476	-6.699080967216218	-645.4106981112066	-75.69508372893131	-12.23600382452658	-0.09876366965501931	0.6141679933010589	-0.9733807309625606	-0.2381778525795953	0.408328031957769	-0.441403842240461	1.854197909715657	-0.8153257394598943	-0.8153257394642512	-0.3125677507468724	0.001181017463338064	-0.4898976094643589	0.461971317963126	6.856069026329942e-07	5.864804475952856e-07	-4.096439860532943e-06	-2.935021902032819e-07	8.496328998146542e-07	1.321417145874159e-06	5.147326634614441e-07
